<svg width="59" height="55" viewBox="0 0 59 55" fill="none" xmlns="http://www.w3.org/2000/svg">
<rect width="58.7931" height="55" rx="27.5" fill="#C3F500"/>
<path d="M29.436 32.823C29.436 31.8363 29.5963 30.973 29.917 30.233C30.2623 29.4683 30.6693 28.827 31.138 28.309C31.6313 27.791 32.2727 27.1743 33.062 26.459C34.0487 25.5957 34.7763 24.8557 35.245 24.239C35.7137 23.5977 35.948 22.833 35.948 21.945C35.948 20.7363 35.4793 19.7743 34.542 19.059C33.6047 18.319 32.3097 17.949 30.657 17.949C27.771 17.949 25.5633 18.9233 24.034 20.872L21.333 18.948C22.369 17.616 23.6887 16.5923 25.292 15.877C26.92 15.1617 28.7947 14.804 30.916 14.804C33.6047 14.804 35.7383 15.396 37.317 16.58C38.8957 17.7393 39.685 19.3427 39.685 21.39C39.685 22.4013 39.5123 23.3017 39.167 24.091C38.8463 24.8557 38.4517 25.497 37.983 26.015C37.5143 26.533 36.8853 27.1497 36.096 27.865C35.0847 28.7777 34.3323 29.5793 33.839 30.27C33.3703 30.9607 33.136 31.8117 33.136 32.823H29.436ZM31.323 41.222C30.6323 41.222 30.0527 41 29.584 40.556C29.14 40.0873 28.918 39.52 28.918 38.854C28.918 38.188 29.14 37.633 29.584 37.189C30.0527 36.7203 30.6323 36.486 31.323 36.486C32.0137 36.486 32.581 36.7203 33.025 37.189C33.469 37.633 33.691 38.188 33.691 38.854C33.691 39.52 33.4567 40.0873 32.988 40.556C32.544 41 31.989 41.222 31.323 41.222Z" fill="#111111"/>
</svg>
