<svg width="1225" height="158" viewBox="0 0 1225 158" fill="none" xmlns="http://www.w3.org/2000/svg">
<g clip-path="url(#clip0_89_18)">
<path d="M52.8 148V44.6H11.8V7.99999H141V44.6H100V148H52.8ZM224.706 151.2C213.373 151.2 202.84 149.4 193.106 145.8C183.506 142.2 175.173 137.133 168.106 130.6C161.04 123.933 155.506 116.133 151.506 107.2C147.64 98.2667 145.706 88.5333 145.706 78C145.706 67.3333 147.64 57.6 151.506 48.8C155.506 39.8667 161.04 32.1333 168.106 25.6C175.173 18.9333 183.506 13.8 193.106 10.2C202.84 6.6 213.373 4.8 224.706 4.8C236.173 4.8 246.706 6.6 256.306 10.2C265.906 13.8 274.24 18.9333 281.306 25.6C288.373 32.1333 293.84 39.8667 297.706 48.8C301.706 57.6 303.706 67.3333 303.706 78C303.706 88.5333 301.706 98.2667 297.706 107.2C293.84 116.133 288.373 123.933 281.306 130.6C274.24 137.133 265.906 142.2 256.306 145.8C246.706 149.4 236.173 151.2 224.706 151.2ZM224.706 113C229.106 113 233.173 112.2 236.906 110.6C240.773 109 244.106 106.733 246.906 103.8C249.84 100.733 252.106 97.0667 253.706 92.8C255.306 88.4 256.106 83.4667 256.106 78C256.106 72.5333 255.306 67.6667 253.706 63.4C252.106 59 249.84 55.3333 246.906 52.4C244.106 49.3333 240.773 47 236.906 45.4C233.173 43.8 229.106 43 224.706 43C220.306 43 216.173 43.8 212.306 45.4C208.573 47 205.24 49.3333 202.306 52.4C199.506 55.3333 197.306 59 195.706 63.4C194.106 67.6667 193.306 72.5333 193.306 78C193.306 83.4667 194.106 88.4 195.706 92.8C197.306 97.0667 199.506 100.733 202.306 103.8C205.24 106.733 208.573 109 212.306 110.6C216.173 112.2 220.306 113 224.706 113ZM380.798 148V7.99999H449.798C465.398 7.99999 479.132 10.8667 490.998 16.6C502.865 22.2 512.132 30.2 518.798 40.6C525.465 51 528.798 63.4 528.798 77.8C528.798 92.3333 525.465 104.867 518.798 115.4C512.132 125.8 502.865 133.867 490.998 139.6C479.132 145.2 465.398 148 449.798 148H380.798ZM427.998 111.2H447.798C454.465 111.2 460.265 109.933 465.198 107.4C470.265 104.867 474.198 101.133 476.998 96.2C479.798 91.1333 481.198 85 481.198 77.8C481.198 70.7333 479.798 64.7333 476.998 59.8C474.198 54.8667 470.265 51.1333 465.198 48.6C460.265 46.0667 454.465 44.8 447.798 44.8H427.998V111.2ZM619.433 151.2C608.099 151.2 597.566 149.4 587.833 145.8C578.233 142.2 569.899 137.133 562.833 130.6C555.766 123.933 550.233 116.133 546.233 107.2C542.366 98.2667 540.433 88.5333 540.433 78C540.433 67.3333 542.366 57.6 546.233 48.8C550.233 39.8667 555.766 32.1333 562.833 25.6C569.899 18.9333 578.233 13.8 587.833 10.2C597.566 6.6 608.099 4.8 619.433 4.8C630.899 4.8 641.433 6.6 651.033 10.2C660.633 13.8 668.966 18.9333 676.033 25.6C683.099 32.1333 688.566 39.8667 692.433 48.8C696.433 57.6 698.433 67.3333 698.433 78C698.433 88.5333 696.433 98.2667 692.433 107.2C688.566 116.133 683.099 123.933 676.033 130.6C668.966 137.133 660.633 142.2 651.033 145.8C641.433 149.4 630.899 151.2 619.433 151.2ZM619.433 113C623.833 113 627.899 112.2 631.633 110.6C635.499 109 638.833 106.733 641.633 103.8C644.566 100.733 646.833 97.0667 648.433 92.8C650.033 88.4 650.833 83.4667 650.833 78C650.833 72.5333 650.033 67.6667 648.433 63.4C646.833 59 644.566 55.3333 641.633 52.4C638.833 49.3333 635.499 47 631.633 45.4C627.899 43.8 623.833 43 619.433 43C615.033 43 610.899 43.8 607.033 45.4C603.299 47 599.966 49.3333 597.033 52.4C594.233 55.3333 592.033 59 590.433 63.4C588.833 67.6667 588.033 72.5333 588.033 78C588.033 83.4667 588.833 88.4 590.433 92.8C592.033 97.0667 594.233 100.733 597.033 103.8C599.966 106.733 603.299 109 607.033 110.6C610.899 112.2 615.033 113 619.433 113ZM775.525 148V7.99999H822.725V111.4H885.925V148H775.525ZM898.963 148V7.99999H946.163V148H898.963ZM1021.08 151.2C1009.35 151.2 998.018 149.867 987.084 147.2C976.151 144.533 967.151 141.067 960.084 136.8L975.284 102.4C981.951 106.267 989.351 109.4 997.484 111.8C1005.75 114.067 1013.75 115.2 1021.48 115.2C1026.02 115.2 1029.55 114.933 1032.08 114.4C1034.75 113.733 1036.68 112.867 1037.88 111.8C1039.08 110.6 1039.68 109.2 1039.68 107.6C1039.68 105.067 1038.28 103.067 1035.48 101.6C1032.68 100.133 1028.95 98.9333 1024.28 98C1019.75 96.9333 1014.75 95.8667 1009.28 94.8C1003.82 93.6 998.284 92.0667 992.684 90.2C987.218 88.3333 982.151 85.8667 977.484 82.8C972.951 79.7333 969.284 75.7333 966.484 70.8C963.684 65.7333 962.284 59.4667 962.284 52C962.284 43.3333 964.684 35.4667 969.484 28.4C974.418 21.2 981.684 15.4667 991.284 11.2C1001.02 6.93333 1013.08 4.8 1027.48 4.8C1036.95 4.8 1046.28 5.79999 1055.48 7.79999C1064.68 9.79999 1072.95 12.8667 1080.28 17L1066.08 51.2C1059.15 47.7333 1052.42 45.1333 1045.88 43.4C1039.48 41.6667 1033.22 40.8 1027.08 40.8C1022.55 40.8 1018.95 41.2 1016.28 42C1013.62 42.8 1011.68 43.8667 1010.48 45.2C1009.42 46.5333 1008.88 48 1008.88 49.6C1008.88 52 1010.28 53.9333 1013.08 55.4C1015.88 56.7333 1019.55 57.8667 1024.08 58.8C1028.75 59.7333 1033.82 60.7333 1039.28 61.8C1044.88 62.8667 1050.42 64.3333 1055.88 66.2C1061.35 68.0667 1066.35 70.5333 1070.88 73.6C1075.55 76.6667 1079.28 80.6667 1082.08 85.6C1084.88 90.5333 1086.28 96.6667 1086.28 104C1086.28 112.533 1083.82 120.4 1078.88 127.6C1074.08 134.667 1066.88 140.4 1057.28 144.8C1047.68 149.067 1035.62 151.2 1021.08 151.2ZM1128.78 148V44.6H1087.78V7.99999H1216.98V44.6H1175.98V148H1128.78Z" fill="#C7FF39"/>
<circle cx="619" cy="79" r="69" fill="#C7FF39"/>
<circle cx="593.882" cy="55.303" r="2.98485" fill="#252726" stroke="#252726"/>
<circle cx="642.027" cy="55.303" r="2.98485" fill="#252726" stroke="#252726"/>
<path d="M600.487 68.3848C611.78 75.8151 621.318 81.7748 637.641 68.3848" stroke="#252726" stroke-width="3" stroke-linejoin="round"/>
</g>
<defs>
<clipPath id="clip0_89_18">
<rect width="1225" height="158" fill="white"/>
</clipPath>
</defs>
</svg>
